#N canvas 654 226 454 414 10;
#X obj 60 6 loadbang;
#X obj 296 37 addacs_in;
#X obj 296 5 bang~;
#X obj 296 171 line~;
#X msg 296 138 \$1 3;
#X obj 296 70 / 256;
#X obj 296 240 osc~;
#X obj 296 109 * 880;
#X obj 292 353 dac~;
#X obj 296 271 *~ 0.5;
#X obj 60 44 del 1000;
#X msg 60 88 \; pd dsp 1;
#X connect 0 0 10 0;
#X connect 1 0 5 0;
#X connect 2 0 1 0;
#X connect 3 0 6 0;
#X connect 4 0 3 0;
#X connect 5 0 7 0;
#X connect 6 0 9 0;
#X connect 7 0 4 0;
#X connect 9 0 8 0;
#X connect 9 0 8 1;
#X connect 10 0 11 0;
