#N canvas 418 182 454 414 10;
#X obj 60 6 loadbang;
#X obj 296 37 addacs_in;
#X obj 296 5 bang~;
#X obj 296 171 line~;
#X obj 296 70 / 256;
#X obj 292 353 dac~;
#X obj 296 271 *~ 0.5;
#X obj 60 44 del 1000;
#X msg 60 88 \; pd dsp 1;
#X obj 64 139 adc~;
#X obj 296 211 vd~ meine;
#X obj 52 183 delwrite~ meine 1000;
#X obj 185 264 *~ 0.5;
#X obj 153 320 *~ 0.3;
#X obj 296 109 * 100;
#X msg 296 138 \$1 10;
#X connect 0 0 7 0;
#X connect 1 0 4 0;
#X connect 2 0 1 0;
#X connect 3 0 10 0;
#X connect 4 0 14 0;
#X connect 6 0 5 0;
#X connect 6 0 5 1;
#X connect 7 0 8 0;
#X connect 9 0 11 0;
#X connect 9 0 12 0;
#X connect 9 1 11 0;
#X connect 9 1 12 0;
#X connect 10 0 6 0;
#X connect 10 0 13 0;
#X connect 12 0 5 0;
#X connect 12 0 5 1;
#X connect 13 0 11 0;
#X connect 14 0 15 0;
#X connect 15 0 3 0;
