#N canvas 418 182 739 435 10;
#X obj 60 6 loadbang;
#X obj 341 5 bang~;
#X obj 443 189 line~;
#X obj 443 85 / 256;
#X obj 439 371 dac~;
#X obj 443 289 *~ 0.5;
#X obj 60 44 del 1000;
#X msg 60 88 \; pd dsp 1;
#X obj 64 139 adc~;
#X obj 443 229 vd~ meine;
#X obj 52 183 delwrite~ meine 1000;
#X obj 266 302 *~ 0.5;
#X msg 443 156 \$1 10;
#X msg 284 159 \$1 10;
#X obj 284 58 addacs_in 0;
#X obj 327 273 *~;
#X obj 284 192 line~;
#X obj 281 127 clip 0 1;
#X obj 442 112 *;
#X obj 443 133 * 1000;
#X obj 284 91 / 160;
#X obj 443 55 addacs_in 3;
#X connect 0 0 6 0;
#X connect 1 0 14 0;
#X connect 1 0 21 0;
#X connect 2 0 9 0;
#X connect 3 0 18 0;
#X connect 3 0 18 1;
#X connect 5 0 4 0;
#X connect 5 0 4 1;
#X connect 6 0 7 0;
#X connect 8 0 10 0;
#X connect 8 0 11 0;
#X connect 8 1 10 0;
#X connect 8 1 11 0;
#X connect 9 0 5 0;
#X connect 9 0 15 1;
#X connect 11 0 4 0;
#X connect 11 0 4 1;
#X connect 12 0 2 0;
#X connect 13 0 16 0;
#X connect 14 0 20 0;
#X connect 15 0 10 0;
#X connect 16 0 15 0;
#X connect 17 0 13 0;
#X connect 18 0 19 0;
#X connect 19 0 12 0;
#X connect 20 0 17 0;
#X connect 21 0 3 0;
