#N canvas 0 22 450 300 10;
#X obj 81 54 osc~ 440;
#X obj 170 89 *~;
#X obj 136 172 dac~;
#X obj 171 52 osc~ 0.25;
#X obj 191 130 *~ 0.2;
#X connect 0 0 1 0;
#X connect 1 0 4 0;
#X connect 3 0 1 1;
#X connect 4 0 2 0;
#X connect 4 0 2 1;
