#N canvas 0 22 615 448 10;
#X obj 249 110 adc~;
#X obj 200 406 dac~;
#X msg 140 65 \; pd dsp 1;
#X obj 139 10 loadbang;
#X obj 141 35 del 1000;
#X obj 325 253 print pd-test;
#X msg 326 217 loadbanged;
#X obj 66 292 *~;
#X obj 90 267 osc~ 880;
#X obj 207 349 *~ 0.3;
#X obj 251 349 *~ 0.3;
#X obj 63 243 clip~ 0 1;
#X obj 61 151 phasor~ 0.1;
#X obj 58 180 *~ 1000;
#X obj 61 211 -~ 990;
#X obj 268 185 *~ 1;
#X obj 227 188 *~ 1;
#X connect 0 0 16 0;
#X connect 0 1 15 0;
#X connect 3 0 4 0;
#X connect 4 0 2 0;
#X connect 4 0 6 0;
#X connect 6 0 5 0;
#X connect 7 0 10 0;
#X connect 7 0 9 0;
#X connect 8 0 7 1;
#X connect 9 0 1 0;
#X connect 10 0 1 1;
#X connect 11 0 7 0;
#X connect 12 0 13 0;
#X connect 13 0 14 0;
#X connect 14 0 11 0;
#X connect 15 0 10 0;
#X connect 16 0 9 0;
