#N canvas 196 176 472 403 10;
#X obj 44 34 netreceive 9999;
#X obj 300 28 loadbang;
#X obj 300 58 del 500;
#X msg 300 88 \; pd dsp 1;
#X obj 68 59 print netreceive;
#X obj 85 281 send;
#X obj 44 153 list split 1;
#X obj 24 219 list;
#X obj 44 182 t b a;
#X obj 24 251 list trim;
#X text 133 151 use the first word in the message;
#X text 136 167 as a send target;
#X connect 0 0 4 0;
#X connect 0 0 6 0;
#X connect 1 0 2 0;
#X connect 2 0 3 0;
#X connect 6 0 8 0;
#X connect 6 1 7 1;
#X connect 7 0 9 0;
#X connect 8 0 7 0;
#X connect 8 1 5 1;
#X connect 9 0 5 0;
