#N canvas 0 22 450 300 10;
#X obj 124 109 osc~ 2;
#X obj 104 185 *~;
#X obj 249 110 adc~;
#X obj 268 185 *~;
#X obj 227 188 *~;
#X obj 202 263 dac~;
#X obj 181 108 osc~ 1.5;
#X obj 166 183 *~;
#X msg 140 65 \; pd dsp 1;
#X obj 139 10 loadbang;
#X obj 141 35 del 1000;
#X obj 33 99 osc~ 220;
#X obj 322 64 osc~ 0.5;
#X obj 317 106 *~ 1.5;
#X obj 325 253 print pd-test;
#X msg 326 217 loadbanged;
#X connect 0 0 1 1;
#X connect 1 0 5 0;
#X connect 2 0 4 0;
#X connect 2 1 3 0;
#X connect 3 0 5 1;
#X connect 4 0 5 0;
#X connect 6 0 7 1;
#X connect 7 0 5 1;
#X connect 9 0 10 0;
#X connect 10 0 8 0;
#X connect 10 0 15 0;
#X connect 11 0 1 0;
#X connect 11 0 7 0;
#X connect 12 0 13 0;
#X connect 13 0 3 1;
#X connect 13 0 4 1;
#X connect 15 0 14 0;
